{
	"asset":{
		"generator":"Khronos glTF Blender I/O v3.5.30",
		"version":"2.0"
	},
	"extensionsUsed":[
		"KHR_materials_specular",
		"KHR_materials_ior",
		"KHR_materials_emissive_strength"
	],
	"scene":0,
	"scenes":[
		{
			"name":"Scene",
			"nodes":[
				0
			]
		}
	],
	"nodes":[
		{
			"mesh":0,
			"name":"Cube",
			"scale":[
				0.425336092710495,
				0.42417386174201965,
				0.42417386174201965
			],
			"translation":[
				-2.2731735706329346,
				0.9163656234741211,
				-1.4796122312545776
			]
		}
	],
	"animations":[
		{
			"channels":[
				{
					"sampler":0,
					"target":{
						"node":0,
						"path":"translation"
					}
				},
				{
					"sampler":1,
					"target":{
						"node":0,
						"path":"rotation"
					}
				},
				{
					"sampler":2,
					"target":{
						"node":0,
						"path":"scale"
					}
				}
			],
			"name":"CubeAction",
			"samplers":[
				{
					"input":23,
					"interpolation":"STEP",
					"output":24
				},
				{
					"input":23,
					"interpolation":"STEP",
					"output":25
				},
				{
					"input":23,
					"interpolation":"STEP",
					"output":26
				}
			]
		}
	],
	"materials":[
		{
			"doubleSided":true,
			"extensions":{
				"KHR_materials_specular":{
					"specularColorFactor":[
						0.9880656491265944,
						0.9880656491265944,
						0.9880656491265944
					]
				},
				"KHR_materials_ior":{
					"ior":1.4500000476837158
				}
			},
			"name":"chassis",
			"pbrMetallicRoughness":{
				"baseColorFactor":[
					0,
					0,
					0,
					1
				],
				"metallicFactor":0,
				"roughnessFactor":0.3305555284023285
			}
		},
		{
			"doubleSided":true,
			"emissiveFactor":[
				0.36850202083587646,
				0.6253081560134888,
				1
			],
			"extensions":{
				"KHR_materials_emissive_strength":{
					"emissiveStrength":15
				}
			},
			"name":"headlight",
			"pbrMetallicRoughness":{
				"baseColorFactor":[
					0,
					0,
					0,
					1
				]
			}
		},
		{
			"doubleSided":true,
			"emissiveFactor":[
				1,
				0.001970496028661728,
				0
			],
			"extensions":{
				"KHR_materials_emissive_strength":{
					"emissiveStrength":3
				}
			},
			"name":"backlight",
			"pbrMetallicRoughness":{
				"baseColorFactor":[
					0,
					0,
					0,
					1
				]
			}
		},
		{
			"doubleSided":true,
			"extensions":{
				"KHR_materials_specular":{
					"specularColorFactor":[
						0.36229077806053095,
						0.36229077806053095,
						0.36229077806053095
					]
				},
				"KHR_materials_ior":{
					"ior":1.4500000476837158
				}
			},
			"name":"tire",
			"pbrMetallicRoughness":{
				"baseColorFactor":[
					0.014669639058411121,
					0.014669639058411121,
					0.014669639058411121,
					1
				],
				"metallicFactor":0,
				"roughnessFactor":0.7777777910232544
			}
		},
		{
			"doubleSided":true,
			"extensions":{
				"KHR_materials_specular":{
					"specularColorFactor":[
						1.0539367253819507,
						1.0539367253819507,
						1.0539367253819507
					]
				},
				"KHR_materials_ior":{
					"ior":1.4500000476837158
				}
			},
			"name":"spikes",
			"pbrMetallicRoughness":{
				"baseColorFactor":[
					0.23301440477371216,
					0.23301440477371216,
					0.23301440477371216,
					1
				],
				"metallicFactor":0,
				"roughnessFactor":0.1944444477558136
			}
		},
		{
			"doubleSided":true,
			"name":"windshield",
			"pbrMetallicRoughness":{
				"baseColorFactor":[
					0,
					0,
					0,
					1
				],
				"metallicFactor":0,
				"roughnessFactor":0.2083333432674408
			}
		}
	],
	"meshes":[
		{
			"name":"Cube",
			"primitives":[
				{
					"attributes":{
						"POSITION":0,
						"TEXCOORD_0":1,
						"NORMAL":2
					},
					"indices":3,
					"material":0
				},
				{
					"attributes":{
						"POSITION":4,
						"TEXCOORD_0":5,
						"NORMAL":6
					},
					"indices":7,
					"material":1
				},
				{
					"attributes":{
						"POSITION":8,
						"TEXCOORD_0":9,
						"NORMAL":10
					},
					"indices":7,
					"material":2
				},
				{
					"attributes":{
						"POSITION":11,
						"TEXCOORD_0":12,
						"NORMAL":13
					},
					"indices":14,
					"material":3
				},
				{
					"attributes":{
						"POSITION":15,
						"TEXCOORD_0":16,
						"NORMAL":17
					},
					"indices":18,
					"material":4
				},
				{
					"attributes":{
						"POSITION":19,
						"TEXCOORD_0":20,
						"NORMAL":21
					},
					"indices":22,
					"material":5
				}
			]
		}
	],
	"accessors":[
		{
			"bufferView":0,
			"componentType":5126,
			"count":1191,
			"max":[
				0.9010304808616638,
				0.5783349871635437,
				2.1024365425109863
			],
			"min":[
				0,
				-0.4359143376350403,
				-1.5743076801300049
			],
			"type":"VEC3"
		},
		{
			"bufferView":1,
			"componentType":5126,
			"count":1191,
			"type":"VEC2"
		},
		{
			"bufferView":2,
			"componentType":5126,
			"count":1191,
			"type":"VEC3"
		},
		{
			"bufferView":3,
			"componentType":5123,
			"count":1857,
			"type":"SCALAR"
		},
		{
			"bufferView":4,
			"componentType":5126,
			"count":4,
			"max":[
				0.8245577216148376,
				0.10374072194099426,
				2.0074450969696045
			],
			"min":[
				0.5265764594078064,
				0.02638315223157406,
				1.859866976737976
			],
			"type":"VEC3"
		},
		{
			"bufferView":5,
			"componentType":5126,
			"count":4,
			"type":"VEC2"
		},
		{
			"bufferView":6,
			"componentType":5126,
			"count":4,
			"type":"VEC3"
		},
		{
			"bufferView":7,
			"componentType":5123,
			"count":6,
			"type":"SCALAR"
		},
		{
			"bufferView":8,
			"componentType":5126,
			"count":4,
			"max":[
				0.7761442065238953,
				0.24699702858924866,
				-1.4981963634490967
			],
			"min":[
				0.5376714468002319,
				0.12767064571380615,
				-1.529229998588562
			],
			"type":"VEC3"
		},
		{
			"bufferView":9,
			"componentType":5126,
			"count":4,
			"type":"VEC2"
		},
		{
			"bufferView":10,
			"componentType":5126,
			"count":4,
			"type":"VEC3"
		},
		{
			"bufferView":11,
			"componentType":5126,
			"count":445,
			"max":[
				0.9010304808616638,
				0.30479368567466736,
				2.089046001434326
			],
			"min":[
				0,
				-0.5184474587440491,
				-1.0389370918273926
			],
			"type":"VEC3"
		},
		{
			"bufferView":12,
			"componentType":5126,
			"count":445,
			"type":"VEC2"
		},
		{
			"bufferView":13,
			"componentType":5126,
			"count":445,
			"type":"VEC3"
		},
		{
			"bufferView":14,
			"componentType":5123,
			"count":663,
			"type":"SCALAR"
		},
		{
			"bufferView":15,
			"componentType":5126,
			"count":1352,
			"max":[
				0.8981815576553345,
				0.36321985721588135,
				1.6552053689956665
			],
			"min":[
				0,
				-0.4359143376350403,
				-1.5230445861816406
			],
			"type":"VEC3"
		},
		{
			"bufferView":16,
			"componentType":5126,
			"count":1352,
			"type":"VEC2"
		},
		{
			"bufferView":17,
			"componentType":5126,
			"count":1352,
			"type":"VEC3"
		},
		{
			"bufferView":18,
			"componentType":5123,
			"count":2100,
			"type":"SCALAR"
		},
		{
			"bufferView":19,
			"componentType":5126,
			"count":62,
			"max":[
				0.7749325633049011,
				0.5478494167327881,
				2.0548460483551025
			],
			"min":[
				0,
				-0.26175302267074585,
				-1.5073760747909546
			],
			"type":"VEC3"
		},
		{
			"bufferView":20,
			"componentType":5126,
			"count":62,
			"type":"VEC2"
		},
		{
			"bufferView":21,
			"componentType":5126,
			"count":62,
			"type":"VEC3"
		},
		{
			"bufferView":22,
			"componentType":5123,
			"count":108,
			"type":"SCALAR"
		},
		{
			"bufferView":23,
			"componentType":5126,
			"count":1,
			"max":[
				0
			],
			"min":[
				0
			],
			"type":"SCALAR"
		},
		{
			"bufferView":24,
			"componentType":5126,
			"count":1,
			"type":"VEC3"
		},
		{
			"bufferView":25,
			"componentType":5126,
			"count":1,
			"type":"VEC4"
		},
		{
			"bufferView":26,
			"componentType":5126,
			"count":1,
			"type":"VEC3"
		}
	],
	"bufferViews":[
		{
			"buffer":0,
			"byteLength":14292,
			"byteOffset":0,
			"target":34962
		},
		{
			"buffer":0,
			"byteLength":9528,
			"byteOffset":14292,
			"target":34962
		},
		{
			"buffer":0,
			"byteLength":14292,
			"byteOffset":23820,
			"target":34962
		},
		{
			"buffer":0,
			"byteLength":3714,
			"byteOffset":38112,
			"target":34963
		},
		{
			"buffer":0,
			"byteLength":48,
			"byteOffset":41828,
			"target":34962
		},
		{
			"buffer":0,
			"byteLength":32,
			"byteOffset":41876,
			"target":34962
		},
		{
			"buffer":0,
			"byteLength":48,
			"byteOffset":41908,
			"target":34962
		},
		{
			"buffer":0,
			"byteLength":12,
			"byteOffset":41956,
			"target":34963
		},
		{
			"buffer":0,
			"byteLength":48,
			"byteOffset":41968,
			"target":34962
		},
		{
			"buffer":0,
			"byteLength":32,
			"byteOffset":42016,
			"target":34962
		},
		{
			"buffer":0,
			"byteLength":48,
			"byteOffset":42048,
			"target":34962
		},
		{
			"buffer":0,
			"byteLength":5340,
			"byteOffset":42096,
			"target":34962
		},
		{
			"buffer":0,
			"byteLength":3560,
			"byteOffset":47436,
			"target":34962
		},
		{
			"buffer":0,
			"byteLength":5340,
			"byteOffset":50996,
			"target":34962
		},
		{
			"buffer":0,
			"byteLength":1326,
			"byteOffset":56336,
			"target":34963
		},
		{
			"buffer":0,
			"byteLength":16224,
			"byteOffset":57664,
			"target":34962
		},
		{
			"buffer":0,
			"byteLength":10816,
			"byteOffset":73888,
			"target":34962
		},
		{
			"buffer":0,
			"byteLength":16224,
			"byteOffset":84704,
			"target":34962
		},
		{
			"buffer":0,
			"byteLength":4200,
			"byteOffset":100928,
			"target":34963
		},
		{
			"buffer":0,
			"byteLength":744,
			"byteOffset":105128,
			"target":34962
		},
		{
			"buffer":0,
			"byteLength":496,
			"byteOffset":105872,
			"target":34962
		},
		{
			"buffer":0,
			"byteLength":744,
			"byteOffset":106368,
			"target":34962
		},
		{
			"buffer":0,
			"byteLength":216,
			"byteOffset":107112,
			"target":34963
		},
		{
			"buffer":0,
			"byteLength":4,
			"byteOffset":107328
		},
		{
			"buffer":0,
			"byteLength":12,
			"byteOffset":107332
		},
		{
			"buffer":0,
			"byteLength":16,
			"byteOffset":107344
		},
		{
			"buffer":0,
			"byteLength":12,
			"byteOffset":107360
		}
	],
	"buffers":[
		{
			"byteLength":107372,
			"uri":"data:application/octet-stream;base64,"
		}
	]
}
